<svg width="133" height="39" viewBox="0 0 133 39" fill="none" xmlns="http://www.w3.org/2000/svg">
<path fill-rule="evenodd" clip-rule="evenodd" d="M8.50879 16.5162L8.51902 17.0377L15.7183 17.0582L19.7372 17.457C19.6452 17.3343 19.5941 17.2934 19.502 17.2116C19.4816 17.1911 19.4407 17.1502 19.41 17.1298L19.1339 16.915C19.635 16.8844 22.0177 16.9253 22.5188 17.0787C22.5597 17.0991 22.6824 17.1502 22.7233 17.1605C22.754 17.1809 22.7846 17.2014 22.8153 17.2218C23.5414 17.5797 23.4698 17.5695 24.1856 17.3343C24.022 17.2525 23.8993 17.1911 23.6846 17.1093L22.9483 16.8025C23.1835 16.598 23.6437 16.4753 24.1141 16.5367C25.4435 16.731 24.1959 16.9662 24.9424 16.9764C25.5048 16.9866 24.9424 16.9764 25.2185 16.8025C25.2492 16.7821 25.2799 16.7514 25.3105 16.7412C25.8525 16.4344 25.7912 16.7207 26.3945 16.4139L26.7627 16.2094C27.2944 16.4958 27.1206 16.5878 27.4887 16.5162C26.3536 14.338 24.3697 12.4871 22.2733 11.2395C21.6495 11.2906 21.9665 11.1372 21.5575 11.1883C21.036 11.2497 21.8643 11.2906 21.0257 11.311C20.5758 11.3213 20.7292 11.1576 19.3998 11.2599C19.5736 11.311 19.5225 11.3417 19.6145 11.4338C20.044 11.8121 19.8599 11.6792 20.3917 11.8224C20.7803 11.9348 20.4633 11.761 20.6883 11.9246C17.4772 11.8837 19.0009 11.7917 18.1931 11.4951L16.8943 12.2928C16.6693 12.4564 17.0068 12.4052 16.5364 12.5075C16.1274 12.5791 16.2705 12.7632 16.1989 12.2007H15.7081C15.4524 12.8143 14.8797 12.7632 14.2662 13.0393C13.8878 12.8859 14.0207 12.7427 13.7037 12.62C13.1208 12.9268 12.4152 13.162 11.6687 13.1006C11.229 13.07 9.78707 13.5199 9.66436 13.6017L9.07123 12.2723L8.71331 12.2519L8.50879 16.5162Z" fill="black"/>
<path fill-rule="evenodd" clip-rule="evenodd" d="M21.6296 22.7405C22.1409 26.5856 19.4718 29.4081 16.4449 30.0625C14.461 30.492 12.5998 29.9194 11.3317 28.999C10.4011 28.3138 9.08195 27.0151 8.78539 25.3175C8.76494 25.3482 8.75471 25.3994 8.74448 25.43C8.57064 26.105 8.89788 27.8434 9.04105 28.4775C9.27625 29.5205 9.63417 30.3898 9.85915 31.351C10.2375 31.9135 10.1148 32.2203 10.6875 32.6191C10.9943 32.2816 10.984 32.7214 11.1681 33.0691C11.0352 32.8134 10.9738 32.5986 11.1477 32.2816C11.5567 32.4862 11.4442 32.435 11.7203 32.7827C11.6692 31.8726 11.751 32.1078 12.0373 31.6885L12.2316 31.3204C12.2419 31.2897 12.2623 31.2386 12.2623 31.2181C12.2725 31.1976 12.2828 31.1465 12.3032 31.1158C12.5282 31.576 13.8065 32.9975 14.5428 33.2838L15.1052 32.4555L17.6311 32.3839C17.7947 31.7601 17.9277 31.7601 18.4901 31.5658C19.8298 31.1056 19.6457 30.1341 22.1102 30.1034C22.3045 29.3671 22.7238 29.4387 23.3476 29.1013L25.4849 27.9968C25.6383 27.6389 24.7895 28.2014 25.8428 27.2503L26.7632 26.647C27.0495 26.5038 26.5689 26.6572 27.0495 26.5038C26.937 25.9004 26.7223 25.5834 26.5075 25.0823C26.5382 25.0619 26.5995 25.0005 26.6098 25.0312C26.6813 25.1744 26.9575 24.6324 27.6119 24.4074L27.7551 24.6835C27.8369 24.9187 27.8062 24.7551 27.8778 25.0823C27.8778 25.113 27.888 25.4709 27.888 25.5016L28.2357 23.5382L28.5937 23.3848C27.8778 22.086 24.8611 19.0488 23.6544 18.967C22.6522 18.9568 23.2658 19.2738 22.4886 19.3965L21.2308 19.1409C21.2921 19.3863 21.2921 19.2329 21.3841 19.3965C21.7114 19.9385 21.6193 20.0203 21.9159 20.368C22.4579 20.2249 21.6909 20.0612 22.7851 19.9385C22.6624 22.1065 23.2146 21.5441 23.1533 22.4031C23.0613 23.845 23.1942 22.853 22.6931 23.2518C22.509 22.7508 22.5499 22.6383 22.5499 21.994H22.4068C22.4068 22.1474 22.4374 22.5667 22.4272 22.6792C22.3863 23.2416 22.3352 23.2825 22.1307 23.5382L21.6296 22.7405Z" fill="black"/>
<path fill-rule="evenodd" clip-rule="evenodd" d="M1.21723 25.0112C0.930896 26.2383 1.35017 25.2362 1.41153 26.0747C1.43198 26.402 1.47289 26.8928 1.24791 27.1178C1.51379 28.2427 1.89216 29.2244 2.40348 30.2061C2.71027 30.7993 3.59995 32.2923 4.01923 32.5684C4.64303 32.1696 4.36692 32.4764 4.7862 32.5173L5.18502 32.4355C5.50203 32.3639 5.48158 32.3639 5.8395 32.3639C6.19742 32.9059 5.58384 32.4048 5.96222 32.5479C5.97244 32.5582 5.99289 32.5582 6.00312 32.5582L7.19959 32.3434C7.20982 31.8219 7.17914 31.9957 7.33253 31.6276C7.8643 31.6174 8.00747 31.5253 8.33471 31.3515C8.70285 31.1674 8.96874 31.0958 9.34711 30.9322C9.55163 31.0856 9.59254 31.1469 9.85842 31.3515C9.63344 30.3902 9.27552 29.521 9.04032 28.4779C8.89715 27.8439 8.56991 26.1054 8.74376 25.4305C8.75399 25.3998 8.76421 25.3487 8.78466 25.318L8.58014 24.5306C8.24267 24.2749 8.40629 24.3976 8.30403 23.9579C8.2938 23.9374 8.2529 23.6613 8.24267 23.5795C8.23245 23.5488 8.22222 23.5284 8.21199 23.467C8.21199 23.4159 8.19154 23.3954 8.18131 23.3648L7.94611 24.1931C7.70068 23.8761 7.75181 21.8206 7.72113 21.2275C7.31208 21.432 8.08928 20.8491 7.56774 21.4525L7.30186 21.6161C7.29163 21.6263 7.25072 21.6365 7.2405 21.6365C6.08493 22.2092 6.39172 22.6898 5.12366 23.5284C4.38737 24.0192 3.67153 24.5612 2.75117 24.5612L2.74094 23.4057C2.36257 23.6409 2.50574 24.7351 2.49551 25.6759C1.46266 25.6452 1.75922 25.6759 1.72854 24.5408C1.54447 24.6942 1.42176 24.8373 1.21723 25.0112Z" fill="black"/>
<path fill-rule="evenodd" clip-rule="evenodd" d="M10.6875 32.6201C10.7591 33.1211 11.0556 33.4484 11.3829 33.8677C11.6692 34.2256 11.8533 34.6244 12.3953 34.8494C13.0702 34.3381 13.1418 35.013 13.3566 33.7245L14.1542 33.5711C14.4303 33.52 15.0541 34.1949 15.729 34.5733C17.4982 35.5448 17.2732 34.9823 18.0606 35.0641C19.1139 35.1664 17.9584 35.1459 18.7356 35.4323C18.7662 35.4221 18.8174 35.3607 18.8276 35.3914L19.5537 35.013C19.5332 34.5017 18.8378 34.7164 19.7377 33.7859C20.0241 33.4995 20.3922 33.1211 20.7092 33.2848C21.783 33.8472 20.0957 33.1825 21.0058 33.5097C21.4558 33.0905 21.783 33.2234 21.9159 32.4462C22.8567 32.3746 22.4068 32.2008 23.0715 32.303C23.3578 32.3542 22.7749 32.4769 23.5317 32.3542C23.8794 32.0576 23.8589 31.8735 24.2168 31.5156C24.5339 31.1986 24.7793 31.1168 25.0758 30.8509L25.2804 31.6588L25.4338 30.7487C26.2416 30.5339 25.9962 30.4316 26.3337 30.2271C26.6098 30.0635 26.4564 29.9919 26.8348 30.1555C26.9984 30.2169 27.0188 30.3805 27.0495 30.5544C27.0904 30.5237 27.1313 30.4112 27.162 30.4419C27.3154 30.6055 27.3256 30.2885 27.4074 30.2476C27.8165 30.0124 27.2745 30.1862 27.8165 30.0942C28.4914 29.542 29.1868 26.4332 29.3709 25.0833C29.4322 24.2754 28.9721 23.8868 28.5937 23.3857L28.2358 23.5391L27.8881 25.5026C27.8881 25.4719 27.8778 25.114 27.8778 25.0833C27.8063 24.7561 27.8369 24.9197 27.7551 24.6845L27.612 24.4084C26.9575 24.6333 26.6814 25.1753 26.6098 25.0322C26.5996 25.0015 26.5382 25.0628 26.5075 25.0833C26.7223 25.5844 26.937 25.9014 27.0495 26.5048C26.5689 26.6581 27.0495 26.5048 26.7632 26.6479L25.8428 27.2513C24.7895 28.2023 25.6383 27.6399 25.4849 27.9978L23.3476 29.1022C22.7238 29.4397 22.3045 29.3681 22.1102 30.1044C19.6457 30.1351 19.8298 31.1066 18.4901 31.5668C17.9277 31.7611 17.7948 31.7611 17.6311 32.3849L15.1052 32.4564L14.5428 33.2848C13.8065 32.9984 12.5282 31.577 12.3032 31.1168C12.2828 31.1475 12.2726 31.1986 12.2623 31.2191C12.2623 31.2395 12.2419 31.2906 12.2317 31.3213L12.0374 31.6895C11.751 32.1087 11.6692 31.8735 11.7204 32.7837C11.4442 32.436 11.5567 32.4871 11.1477 32.2826C10.9738 32.5996 11.0352 32.8144 11.1681 33.07C10.9841 32.7223 10.9943 32.2826 10.6875 32.6201Z" fill="black"/>
<path fill-rule="evenodd" clip-rule="evenodd" d="M1.21764 25.0119C1.42217 24.8381 1.54488 24.6949 1.72896 24.5415C1.75964 25.6766 1.46307 25.646 2.49593 25.6766C2.50615 24.7358 2.36299 23.6416 2.74136 23.4064L2.75158 24.562C3.67195 24.562 4.38778 24.02 5.12408 23.5291C6.39213 22.6906 6.08534 22.2099 7.24091 21.6373C7.25114 21.6373 7.29204 21.627 7.30227 21.6168L7.56815 21.4532C8.08969 20.8499 7.3125 21.4327 7.72155 21.2282C7.75223 21.8213 7.70109 23.8768 7.94652 24.1938L8.18173 23.3655L8.22263 17.3627C7.52725 16.923 5.48199 17.2195 4.57186 17.2502H1.75964C1.67783 17.2604 1.44262 17.2911 1.37104 17.3013C0.98244 17.3831 1.19719 17.3525 1.0847 17.4036C0.747236 19.2443 0.788141 23.2223 1.21764 25.0119Z" fill="black"/>
<path fill-rule="evenodd" clip-rule="evenodd" d="M12.3945 34.8509C12.6093 35.3622 13.4376 36.0576 13.9694 36.4769C14.4909 36.886 15.3295 37.3359 15.7283 37.9086C18.4587 37.9393 21.5164 36.6405 23.2037 35.4338C24.6763 34.3703 27.2737 31.8955 27.8157 30.0957C27.2737 30.1878 27.8157 30.0139 27.4067 30.2491C27.3249 30.29 27.3146 30.607 27.1613 30.4434C27.1306 30.4127 27.0897 30.5252 27.0488 30.5559C27.0181 30.3821 26.9976 30.2184 26.834 30.1571C26.4556 29.9935 26.609 30.065 26.3329 30.2287C25.9955 30.4332 26.2409 30.5354 25.433 30.7502L25.2796 31.6603L25.0751 30.8525C24.7785 31.1183 24.5331 31.2002 24.2161 31.5172C23.8582 31.8751 23.8786 32.0592 23.5309 32.3557C22.7742 32.4784 23.3571 32.3557 23.0707 32.3046C22.406 32.2023 22.856 32.3762 21.9152 32.4478C21.7822 33.225 21.455 33.092 21.005 33.5113C20.0949 33.184 21.7822 33.8488 20.7085 33.2863C20.3915 33.1227 20.0233 33.5011 19.737 33.7874C18.8371 34.718 19.5325 34.5032 19.5529 35.0145L18.8269 35.3929C18.8166 35.3622 18.7655 35.4236 18.7348 35.4338C17.9576 35.1475 19.1132 35.1679 18.0599 35.0657C17.2725 34.9839 17.4974 35.5463 15.7283 34.5748C15.0534 34.1964 14.4296 33.5215 14.1534 33.5726L13.3558 33.726C13.141 35.0145 13.0695 34.3396 12.3945 34.8509Z" fill="black"/>
<path fill-rule="evenodd" clip-rule="evenodd" d="M8.50879 16.5155L8.71331 12.2511L9.07123 12.2716L9.66436 13.601C9.78707 13.5192 11.229 13.0692 11.6687 13.0999C12.4152 13.1612 13.1208 12.926 13.7037 12.6193C14.0207 12.742 13.8878 12.8851 14.2662 13.0385C14.8798 12.7624 15.4524 12.8136 15.7081 12.2H16.1989C16.2705 12.7624 16.1274 12.5784 16.5364 12.5068C17.0068 12.4045 16.6693 12.4556 16.8943 12.292L18.1931 11.4944C19.0009 11.7909 17.4772 11.883 20.6883 11.9239C20.4633 11.7603 20.7803 11.9341 20.3917 11.8216C19.8599 11.6784 20.044 11.8114 19.6145 11.433C19.5225 11.341 19.5736 11.3103 19.3998 11.2592C20.7292 11.1569 20.5758 11.3205 21.0257 11.3103C21.8643 11.2898 21.036 11.2489 21.5575 11.1876C21.9666 11.1364 21.6495 11.2898 22.2733 11.2387C20.5553 10.2672 18.6226 9.56161 16.3728 9.36731C14.4809 9.20369 10.4006 9.18323 8.52924 9.34685L8.50879 16.5155Z" fill="black"/>
<path fill-rule="evenodd" clip-rule="evenodd" d="M0.839355 9.34522C0.839355 9.03843 0.849582 8.81345 0.870034 8.50666L1.06433 7.61698C1.85176 7.65788 1.4427 7.31019 1.5961 8.05671C1.71881 6.94205 1.78017 8.27146 2.16877 7.23861C2.16877 7.23861 2.55737 5.76603 2.6494 6.13417C2.65963 6.1444 2.97664 6.31824 3.48796 6.17508C3.84588 6.07281 4.19357 5.83761 4.439 5.70467C5.13439 5.29562 6.02407 5.38766 7.10805 5.37743C7.59891 5.19336 7.18986 5.47969 7.43529 4.79453C7.44552 4.76385 7.55801 4.48774 7.55801 4.47752C7.73186 4.17073 7.66027 4.3139 7.82389 4.15028C8.42724 6.08304 8.50905 7.10567 8.50905 9.35544L8.5295 9.34522L8.50905 1.39941L0.849582 1.40964L0.839355 9.34522Z" fill="black"/>
<path fill-rule="evenodd" clip-rule="evenodd" d="M4.01953 32.5683C5.758 35.1351 10.5541 38.3564 15.7286 37.9064C15.3298 37.3338 14.4912 36.8838 13.9697 36.4748C13.4379 36.0555 12.6096 35.3601 12.3948 34.8488C11.8528 34.6238 11.6688 34.225 11.3824 33.8671C11.0552 33.4478 10.7586 33.1205 10.6871 32.6195C10.1144 32.2206 10.2371 31.9139 9.85873 31.3514C9.59284 31.1469 9.55194 31.0855 9.34741 30.9321C8.96904 31.0957 8.70316 31.1673 8.33501 31.3514C8.00777 31.5253 7.86461 31.6173 7.33284 31.6275C7.17945 31.9957 7.21012 31.8218 7.1999 32.3434L6.00343 32.5581C5.9932 32.5581 5.97275 32.5581 5.96252 32.5479C5.58415 32.4047 6.19773 32.9058 5.83981 32.3638C5.48189 32.3638 5.50234 32.3638 5.18533 32.4354L4.7865 32.5172C4.36722 32.4763 4.64333 32.1695 4.01953 32.5683Z" fill="black"/>
<path fill-rule="evenodd" clip-rule="evenodd" d="M19.7376 17.4522C20.6069 17.7079 23.0714 18.1783 23.6543 18.9657C24.861 19.0475 27.8777 22.0847 28.5936 23.3834C28.9719 23.8845 29.4321 24.2731 29.3708 25.081C29.6776 22.3506 28.8595 18.4032 27.4891 16.5114C27.121 16.583 27.2948 16.4909 26.7631 16.2046L26.3949 16.4091C25.7916 16.7159 25.8529 16.4296 25.3109 16.7364C25.2803 16.7466 25.2496 16.7773 25.2189 16.7977C24.9428 16.9716 25.5052 16.9818 24.9428 16.9716C24.1963 16.9613 25.4439 16.7261 24.1145 16.5318C23.6441 16.4705 23.1839 16.5932 22.9487 16.7977L23.685 17.1045C23.8997 17.1863 24.0224 17.2477 24.1861 17.3295C23.4702 17.5647 23.5418 17.5749 22.8157 17.217C22.7851 17.1965 22.7544 17.1761 22.7237 17.1556C22.6828 17.1454 22.5601 17.0943 22.5192 17.0738C22.0181 16.9204 19.6354 16.8795 19.1343 16.9102L19.4104 17.125C19.4411 17.1454 19.482 17.1863 19.5024 17.2068C19.5945 17.2886 19.6456 17.3295 19.7376 17.4522Z" fill="black"/>
<path fill-rule="evenodd" clip-rule="evenodd" d="M0.839355 9.34484L8.50905 9.35507C8.50905 7.10529 8.42724 6.08267 7.82389 4.1499C7.66027 4.31352 7.73186 4.17035 7.55801 4.47714C7.55801 4.48737 7.44552 4.76348 7.43529 4.79416C7.18986 5.47932 7.59891 5.19298 7.10805 5.37705C6.02407 5.38728 5.13439 5.29524 4.439 5.70429C4.19357 5.83724 3.84588 6.07244 3.48796 6.1747C2.97664 6.31787 2.65963 6.14402 2.6494 6.1338C2.55737 5.76565 2.16877 7.23823 2.16877 7.23823C1.78017 8.27109 1.71881 6.94167 1.5961 8.05633C1.4427 7.30982 1.85176 7.65751 1.06433 7.61661L0.870034 8.50629C0.849582 8.81308 0.839355 9.03806 0.839355 9.34484Z" fill="black"/>
<path fill-rule="evenodd" clip-rule="evenodd" d="M21.629 22.7424L22.1301 23.5401C22.3347 23.2844 22.3858 23.2435 22.4267 22.6811C22.4369 22.5686 22.4062 22.1493 22.4062 21.9959H22.5494C22.5494 22.6402 22.5085 22.7527 22.6926 23.2538C23.1937 22.8549 23.0607 23.8469 23.1528 22.405C23.2141 21.546 22.6619 22.1084 22.7846 19.9404C21.6904 20.0632 22.4574 20.2268 21.9154 20.3699C21.6188 20.0223 21.7109 19.9404 21.3836 19.3985C21.2916 19.2348 21.2916 19.3882 21.2302 19.1428L22.488 19.3985C23.2652 19.2757 22.6517 18.9587 23.6538 18.969C23.0709 18.1815 20.6064 17.7111 19.7372 17.4555L15.7183 17.0566C17.3442 17.1896 18.735 18.0179 19.6247 18.8769C20.678 19.8689 21.2302 20.9119 21.629 22.7424Z" fill="black"/>
<path fill-rule="evenodd" clip-rule="evenodd" d="M1.24824 27.1221C1.47322 26.8971 1.43232 26.4063 1.41186 26.079C1.35051 25.2405 0.93123 26.2427 1.21757 25.0155C0.788062 23.2259 0.747157 19.2479 1.08462 17.4072C1.19711 17.356 0.982361 17.3867 1.37096 17.3049C1.44254 17.2947 1.67775 17.264 1.75956 17.2538H4.57178C5.48191 17.2231 7.52717 16.9265 8.22255 17.3663L8.18165 23.3691C8.19187 23.3998 8.21233 23.4202 8.21233 23.4714C8.22255 23.5327 8.23278 23.5532 8.243 23.5838C8.25323 23.6657 8.29414 23.9418 8.30436 23.9622C8.40663 24.4019 8.243 24.2792 8.58047 24.5349L8.51911 17.039L0.777836 17.0288C0.869872 20.2296 0.471048 24.1667 1.24824 27.1221Z" fill="black"/>
<path d="M96.6938 37.6329V11.3564H101.773V15.5545C103.224 12.6003 105.867 10.9937 109.184 10.9937C113.175 10.9937 115.714 12.8594 116.751 16.0727C118.254 12.7558 121.156 10.9937 124.577 10.9937C130.071 10.9937 132.818 14.4661 132.818 19.9598V37.6329H127.738V21.0482C127.738 17.4721 126.235 15.399 123.178 15.399C120.534 15.399 117.321 17.6794 117.321 23.3804V37.6329H112.242V21.0482C112.242 17.4721 110.739 15.399 107.629 15.399C105.038 15.399 101.773 17.6794 101.773 23.3804V37.6329H96.6938Z" fill="black"/>
<path d="M75.5596 11.3574V28.0458C75.5596 31.7256 77.5291 33.5914 80.535 33.5914C84.4221 33.5914 87.0653 30.7927 87.0653 25.6618V11.3574H92.1444V37.6339H87.0653V33.1249C85.6659 36.3382 82.8154 37.9449 78.8766 37.9449C73.6938 37.9449 70.4287 34.7316 70.4287 29.2897V11.3574H75.5596Z" fill="black"/>
<path d="M49.6055 11.3574V28.0458C49.6055 31.7256 51.575 33.5914 54.5809 33.5914C58.468 33.5914 61.1112 30.7927 61.1112 25.6618V11.3574H66.1903V37.6339H61.1112V33.1249C59.7119 36.3382 56.8613 37.9449 52.9225 37.9449C47.7397 37.9449 44.4746 34.7316 44.4746 29.2897V11.3574H49.6055Z" fill="black"/>
<path d="M34.8799 37.6331V0.991211H40.0108V37.6331H34.8799Z" fill="black"/>
</svg>
